<?xml version="1.0" encoding="UTF-8"?>
<svg version="1.1" xmlns="http://www.w3.org/2000/svg" width="1024" height="1024">
<path d="M0 0 C337.92 0 675.84 0 1024 0 C1024 337.92 1024 675.84 1024 1024 C686.08 1024 348.16 1024 0 1024 C0 686.08 0 348.16 0 0 Z " fill="#FDFEFE" transform="translate(0,0)"/>
<path d="M0 0 C203.94 0 407.88 0 618 0 C618 203.94 618 407.88 618 618 C414.06 618 210.12 618 0 618 C0 414.06 0 210.12 0 0 Z " fill="#FDFDFD" transform="translate(203,203)"/>
<path d="M0 0 C203.94 0 407.88 0 618 0 C618 203.94 618 407.88 618 618 C414.06 618 210.12 618 0 618 C0 414.06 0 210.12 0 0 Z M11 11 C11 207.68 11 404.36 11 607 C207.68 607 404.36 607 607 607 C607 410.32 607 213.64 607 11 C410.32 11 213.64 11 11 11 Z " fill="#255180" transform="translate(203,203)"/>
<path d="M0 0 C82.83 0 165.66 0 251 0 C248.8015734 3.29763989 247.34335747 3.99398552 244 6 C242.14525937 7.55894148 240.34152713 9.16104733 238.55078125 10.79296875 C237 12 237 12 235 12 C234.34 13.32 233.68 14.64 233 16 C232.34 16 231.68 16 231 16 C230.75507812 16.54785156 230.51015625 17.09570312 230.2578125 17.66015625 C228.72928223 20.50360231 226.85891041 22.89021433 224.875 25.4375 C216.95711417 35.84620735 211.76423613 45.61298606 207 58 C185.88 58 164.76 58 143 58 C143 126.64 143 195.28 143 266 C121.88 266 100.76 266 79 266 C79 197.36 79 128.72 79 58 C52.93 58 26.86 58 0 58 C0 38.86 0 19.72 0 0 Z " fill="#22517F" transform="translate(309,379)"/>
<path d="M0 0 C56.76 0 113.52 0 172 0 C172 18.48 172 36.96 172 56 C136.03 56 100.06 56 63 56 C63 89.99 63 123.98 63 159 C42.21 159 21.42 159 0 159 C0 106.53 0 54.06 0 0 Z " fill="#204E7C" transform="translate(524,485)"/>
<path d="M0 0 C1.99781145 0.00373871 3.99562476 0.00658162 5.99343872 0.00857544 C11.20474475 0.01614443 16.41593601 0.03573361 21.62719727 0.0579834 C27.90498992 0.08222291 34.18282134 0.09125493 40.46064758 0.10289001 C49.95561525 0.12216306 59.45033203 0.16053235 68.9453125 0.1953125 C68.9453125 19.6653125 68.9453125 39.1353125 68.9453125 59.1953125 C10.8653125 59.1953125 -47.2146875 59.1953125 -107.0546875 59.1953125 C-100.66488583 40.02590748 -84.40229508 23.96722232 -67.0546875 14.1953125 C-65.74177734 13.42960937 -65.74177734 13.42960937 -64.40234375 12.6484375 C-58.23071082 9.28996124 -51.87244199 7.00350355 -45.1796875 4.9453125 C-44.39021729 4.699021 -43.60074707 4.45272949 -42.78735352 4.19897461 C-28.63032884 0.05115694 -14.6094506 -0.08115627 0 0 Z " fill="#24527F" transform="translate(646.0546875,377.8046875)"/>
<path d="M0 0 C47.19 0 94.38 0 143 0 C141 2 141 2 138.58308983 2.24609566 C137.55989962 2.24425207 136.5367094 2.24240849 135.48251343 2.24050903 C134.31019669 2.24325836 133.13787994 2.24600769 131.93003845 2.24884033 C130.63747635 2.24164978 129.34491425 2.23445923 128.01318359 2.22705078 C126.64344796 2.22648686 125.27371172 2.22680285 123.90397644 2.22793579 C120.17895442 2.22851107 116.45406046 2.21672862 112.72906828 2.20278788 C108.838642 2.19030954 104.94821298 2.18911231 101.05776978 2.18673706 C93.68774518 2.18051375 86.31777972 2.16409146 78.94778121 2.14403808 C70.55854362 2.12170551 62.16930326 2.11069231 53.78004336 2.10064721 C36.51999467 2.07972594 19.26000358 2.04453349 2 2 C2.00114555 2.82241684 2.00229111 3.64483368 2.00347137 4.49217224 C2.02646603 23.68368501 1.96178447 42.87166107 1.78125 62.0625 C1.75870491 64.57267141 1.73628747 67.08284397 1.71398926 69.59301758 C1.65606488 76.07646862 1.59645295 82.55990298 1.53643799 89.04333496 C1.47505607 95.70856794 1.41534129 102.37381582 1.35546875 109.0390625 C1.2385723 122.02605642 1.11994261 135.01303387 1 148 C0.67 148 0.34 148 0 148 C0 99.16 0 50.32 0 0 Z " fill="#144375" transform="translate(524,485)"/>
<path d="M0 0 C0 3 0 3 -2.5 5.6875 C-3.325 6.450625 -4.15 7.21375 -5 8 C-5.66 7.67 -6.32 7.34 -7 7 C-4.69 4.69 -2.38 2.38 0 0 Z " fill="#46769A" transform="translate(560,406)"/>
</svg>
